<svg xmlns="http://www.w3.org/2000/svg" width="17.596" height="15.649" viewBox="0 0 17.596 15.649">
  <g id="noun-convert-4239293" transform="translate(-99.077 -140.002)">
    <path id="Path_4" data-name="Path 4" d="M194.036,146.293l-1.221-2.754a1.282,1.282,0,1,1,2.347-1.033l.157.407A8.022,8.022,0,0,1,201.485,140,7.815,7.815,0,0,1,209,145.448a1.229,1.229,0,0,1-.814,1.565.924.924,0,0,1-.407.063,1.278,1.278,0,0,1-1.221-.876,5.385,5.385,0,0,0-5.1-3.724,5.277,5.277,0,0,0-5.1,3.724,1.249,1.249,0,0,1-1.189.876,1.173,1.173,0,0,1-1.126-.783Zm16.149,5.79-1.221-2.754a1.208,1.208,0,0,0-1.221-.751,1.436,1.436,0,0,0-1.189.876,5.385,5.385,0,0,1-5.1,3.724,5.278,5.278,0,0,1-5.1-3.724,1.288,1.288,0,0,0-1.6-.814,1.229,1.229,0,0,0-.814,1.565,7.873,7.873,0,0,0,7.511,5.446,8.062,8.062,0,0,0,6.2-2.942l.157.407a1.311,1.311,0,0,0,1.69.657,1.277,1.277,0,0,0,.689-1.69Z" transform="translate(-93.616 0)" fill="#fff"/>
  </g>
</svg>
