<svg xmlns="http://www.w3.org/2000/svg" width="34" height="34" viewBox="0 0 34 34">
  <g id="Group_9" data-name="Group 9" transform="translate(-42 -128)">
    <g id="_23" data-name="23" transform="translate(46.038 132.038)">
      <path id="Path_1" data-name="Path 1" d="M12.962,25.924A12.962,12.962,0,1,0,0,12.962,12.963,12.963,0,0,0,12.962,25.924Z" transform="translate(0 0)" fill="#f0f0f0"/>
      <g id="Group_8" data-name="Group 8" transform="translate(0 0)">
        <path id="Path_2" data-name="Path 2" d="M32.382,58.865H20.753V55.48h8.641A12.956,12.956,0,0,1,32.382,58.865ZM34.3,65.633H20.76V62.249H33.851a12.976,12.976,0,0,1,.446,3.384ZM21.335,78.595A12.876,12.876,0,0,0,29.4,75.78H13.271A12.87,12.87,0,0,0,21.335,78.595ZM32.4,72.4H10.275A12.826,12.826,0,0,1,8.82,69.018H33.851A12.819,12.819,0,0,1,32.4,72.4Z" transform="translate(-8.373 -52.671)" fill="#d80027" fill-rule="evenodd"/>
        <path id="Path_3" data-name="Path 3" d="M6.018,2.017H6.006v.008Zm0,0H7.19l-1.1.792.418,1.3L5.4,3.313l-1.095.792.36-1.118A12.966,12.966,0,0,0,2.161,5.8h.382l-.7.506-.317.557.331,1.03-.626-.456L.8,8.44l.36,1.129H2.527l-1.087.8.418,1.3-1.1-.792-.648.475A12.006,12.006,0,0,0,0,12.962H12.962V0A12.9,12.9,0,0,0,6.018,2.017ZM6.5,11.66l.01.008H6.5ZM6.085,10.37,6.5,11.66l-1.1-.785-1.1.792.418-1.3-1.1-.792H4.982l.418-1.3.418,1.3H7.185ZM6.093,6.6l.418,1.3L5.409,7.1l-1.1.792.418-1.3L3.623,5.8H4.99l.418-1.3.418,1.3H7.192Zm3.968,4.277,1.1.792-.418-1.3,1.1-.792H10.481l-.418-1.3-.418,1.3H8.278l1.1.792-.418,1.3ZM10.744,6.6l.418,1.3L10.06,7.1l-1.1.792.418-1.3L8.274,5.8H9.641l.418-1.3.418,1.3h1.367Zm.418-2.477-.418-1.3,1.1-.792H10.481l-.418-1.3-.418,1.3H8.278l1.1.792-.418,1.3,1.1-.792Z" transform="translate(0 0)" fill="#0052b4" fill-rule="evenodd"/>
      </g>
    </g>
    <g id="Ellipse_2" data-name="Ellipse 2" transform="translate(42 128)" fill="none" stroke="#fff" stroke-width="1" opacity="0.47">
      <circle cx="17" cy="17" r="17" stroke="none"/>
      <circle cx="17" cy="17" r="16.5" fill="none"/>
    </g>
  </g>
</svg>
