<svg id="_745" data-name="745" xmlns="http://www.w3.org/2000/svg" width="28.983" height="28.986" viewBox="0 0 28.983 28.986">
  <path id="Path_19" data-name="Path 19" d="M28.2,12.607l0,0L16.379.781a2.668,2.668,0,0,0-3.774,0L.787,12.6l-.012.012a2.667,2.667,0,0,0,1.776,4.546q.041,0,.082,0H3.1v8.7a3.127,3.127,0,0,0,3.123,3.123h4.626a.849.849,0,0,0,.849-.849V21.315a1.426,1.426,0,0,1,1.425-1.425h2.729a1.426,1.426,0,0,1,1.425,1.425v6.822a.849.849,0,0,0,.849.849h4.626a3.127,3.127,0,0,0,3.123-3.123v-8.7h.437A2.669,2.669,0,0,0,28.2,12.607Zm0,0" transform="translate(0 0.001)" fill="#27a6dc"/>
</svg>
