<svg id="_2233" data-name="2233" xmlns="http://www.w3.org/2000/svg" width="28.984" height="28.987" viewBox="0 0 28.984 28.987">
  <path id="Path_18" data-name="Path 18" d="M28.7,12.607l0,0L16.879.781a2.668,2.668,0,0,0-3.774,0L1.287,12.6l-.012.012A2.667,2.667,0,0,0,3.05,17.157c.027,0,.055,0,.082,0H3.6v8.7a3.127,3.127,0,0,0,3.123,3.123h4.626a.849.849,0,0,0,.849-.849V21.315a1.427,1.427,0,0,1,1.425-1.425h2.729a1.426,1.426,0,0,1,1.425,1.425v6.822a.849.849,0,0,0,.849.849h4.626a3.127,3.127,0,0,0,3.123-3.123v-8.7h.437A2.669,2.669,0,0,0,28.7,12.607Zm-1.2,2.572a.964.964,0,0,1-.686.284H25.53a.849.849,0,0,0-.849.849v9.551a1.426,1.426,0,0,1-1.425,1.425H19.479V21.315a3.127,3.127,0,0,0-3.123-3.123H13.627A3.127,3.127,0,0,0,10.5,21.315v5.973H6.727A1.426,1.426,0,0,1,5.3,25.863V16.312a.849.849,0,0,0-.849-.849H3.189l-.04,0a.969.969,0,0,1-.668-1.655h0L14.306,1.982a.97.97,0,0,1,1.372,0L27.5,13.8l.006.005a.972.972,0,0,1,0,1.37Zm0,0" transform="translate(-0.5 0.001)" fill="#b8b8b8"/>
</svg>
