<svg xmlns="http://www.w3.org/2000/svg" width="31.115" height="30.888" viewBox="0 0 31.115 30.888">
  <g id="_474" data-name="474" transform="translate(0.25 0.073)">
    <g id="XMLID_1_" transform="translate(0 0.181)">
      <path id="Path_26" data-name="Path 26" d="M14.138,9.09l11.238,2.232a1.885,1.885,0,0,1,1.518,1.862V26.2a1.911,1.911,0,0,1-1.913,1.913H13.5a.632.632,0,0,0,.638-.638v-.638H24.981a.64.64,0,0,0,.638-.638V13.185a.641.641,0,0,0-.5-.625L14.138,10.391Z" transform="translate(3.721 2.275)" fill="#b8b8b8" stroke="#b8b8b8" stroke-width="0.5"/>
      <path id="Path_27" data-name="Path 27" d="M20.189,14a.638.638,0,0,1,0,1.276H17.638a.638.638,0,0,1,0-1.276Z" transform="translate(4.686 3.991)" fill="#b8b8b8" stroke="#b8b8b8" stroke-width="0.5"/>
      <path id="Path_29" data-name="Path 29" d="M20.189,20a.638.638,0,1,1,0,1.276H17.638a.638.638,0,1,1,0-1.276Z" transform="translate(4.686 3.645)" fill="#b8b8b8" stroke="#b8b8b8" stroke-width="0.5"/>
      <path id="Path_30" data-name="Path 30" d="M14.276,27.5A.638.638,0,0,1,13,27.5V9.638a.678.678,0,0,1,.23-.5.67.67,0,0,1,.536-.128l.51.1V27.5Z" transform="translate(3.583 2.25)" fill="#b8b8b8" stroke="#b8b8b8" stroke-width="0.5"/>
      <path id="Path_31" data-name="Path 31" d="M13.965,23v.638a.632.632,0,0,0,.638.638H9.5a.632.632,0,0,0,.638-.638V23Z" transform="translate(2.619 6.109)" fill="#b8b8b8" stroke="#b8b8b8" stroke-width="0.5"/>
      <path id="Path_32" data-name="Path 32" d="M11.189,5a.638.638,0,1,1,0,1.276H8.638A.638.638,0,1,1,8.638,5Z" transform="translate(2.205 3.148)" fill="#b8b8b8" stroke="#b8b8b8" stroke-width="0.5"/>
      <path id="Path_35" data-name="Path 35" d="M11.189,14a.638.638,0,0,1,0,1.276H8.638a.638.638,0,1,1,0-1.276Z" transform="translate(2.205 0.629)" fill="#b8b8b8" stroke="#b8b8b8" stroke-width="0.5"/>
      <path id="Path_36" data-name="Path 36" d="M6.827,14.638a.632.632,0,0,1-.638.638H3.638a.638.638,0,0,1,0-1.276H6.189A.632.632,0,0,1,6.827,14.638Z" transform="translate(0.827 0.629)" fill="#b8b8b8" stroke="#b8b8b8" stroke-width="0.5"/>
      <path id="Path_37" data-name="Path 37" d="M6.189,5a.638.638,0,1,1,0,1.276H3.638A.638.638,0,1,1,3.638,5Z" transform="translate(0.827 3.148)" fill="#b8b8b8" stroke="#b8b8b8" stroke-width="0.5"/>
      <path id="Path_40" data-name="Path 40" d="M10.378,18.913a.64.64,0,0,0-.638-.638H5.913a.632.632,0,0,0-.638.638v5.74H4v-5.74A1.911,1.911,0,0,1,5.913,17H9.74a1.911,1.911,0,0,1,1.913,1.913v5.74H10.378Z" transform="translate(1.103 4.455)" fill="#b8b8b8" stroke="#b8b8b8" stroke-width="0.5"/>
      <path id="Path_41" data-name="Path 41" d="M5.276,23h6.378v.638a.632.632,0,0,1-.638.638H4.638A.632.632,0,0,1,4,23.638V23Z" transform="translate(1.103 6.109)" fill="#b8b8b8" stroke="#b8b8b8" stroke-width="0.5"/>
      <path id="Path_42" data-name="Path 42" d="M2.232.205l14.019,2.13a1.906,1.906,0,0,1,1.607,1.888v7.322l-.51-.1a.67.67,0,0,0-.536.128.678.678,0,0,0-.23.5V4.224a.645.645,0,0,0-.536-.638L2.028,1.468a.353.353,0,0,0-.115-.013.6.6,0,0,0-.408.153.61.61,0,0,0-.23.485V28.652a.64.64,0,0,0,.638.638H5.1v.638a.632.632,0,0,0,.638.638H1.913A1.911,1.911,0,0,1,0,28.652V2.093A1.878,1.878,0,0,1,.676.639,1.915,1.915,0,0,1,2.232.205Z" transform="translate(0 -0.181)" fill="#b8b8b8" stroke="#b8b8b8" stroke-width="0.5"/>
    </g>
  </g>
</svg>
