<svg id="Group_41" data-name="Group 41" xmlns="http://www.w3.org/2000/svg" xmlns:xlink="http://www.w3.org/1999/xlink" width="36.536" height="25.534" viewBox="0 0 36.536 25.534">
  <defs>
    <clipPath id="clip-path">
      <path id="Path_8" data-name="Path 8" d="M3096.486,13609.1l2.323-2.177,1.742-1.888,2.177-2.419.823-1.936.774-1.839.677-2.758-.677-1.258,1.5-2.177,6.677-.484,3.484.484s2.08,2.323,2.274,2.661a8.775,8.775,0,0,1,.823,3c.048,1.161.194,9.822.242,10.451a41.167,41.167,0,0,1-1.839,6.773,45.139,45.139,0,0,0-4.984-1.112c-1.064,0-4.6.677-5.758.677s-4.5.628-6.871,0-3.726-.627-3.968-1.063-.483-.581-.435-1.017S3096.486,13609.1,3096.486,13609.1Z" transform="translate(-3095.464 -13592.165)" fill="#fff" stroke="#fff" stroke-width="1"/>
    </clipPath>
  </defs>
  <g id="vuesax_linear_call" data-name="vuesax/linear/call">
    <g id="call">
      <g id="call-2" data-name="call" transform="translate(2.03 2)">
        <path id="Vector" d="M0,16.33a2.545,2.545,0,0,0,.25,1.09,4.126,4.126,0,0,0,.68,1.02,4.508,4.508,0,0,0,1.64,1.18A5.022,5.022,0,0,0,4.52,20a8.334,8.334,0,0,0,3.26-.73,17.564,17.564,0,0,0,3.44-1.98,28.75,28.75,0,0,0,3.28-2.8,28.414,28.414,0,0,0,2.79-3.27,17.828,17.828,0,0,0,1.96-3.41,8.423,8.423,0,0,0,.72-3.27,5.173,5.173,0,0,0-.36-1.93A4.6,4.6,0,0,0,18.46.94,2.93,2.93,0,0,0,16.38,0a1.879,1.879,0,0,0-.81.18,1.63,1.63,0,0,0-.67.56L12.58,4.01a3.422,3.422,0,0,0-.4.7,1.581,1.581,0,0,0-.14.61,1.357,1.357,0,0,0,.21.71,3.4,3.4,0,0,0,.56.71l.76.79a.535.535,0,0,1,.16.4.908.908,0,0,1-.03.23c-.03.08-.06.14-.08.2a8.3,8.3,0,0,1-.93,1.28c-.45.52-.93,1.05-1.45,1.58-.54.53-1.06,1.02-1.59,1.47a7.675,7.675,0,0,1-1.29.92c-.05.02-.11.05-.18.08a.69.69,0,0,1-.25.04.55.55,0,0,1-.41-.17l-.76-.75a3.068,3.068,0,0,0-.72-.56,1.332,1.332,0,0,0-.71-.21,1.6,1.6,0,0,0-.61.13,3.868,3.868,0,0,0-.7.39L.71,14.91a1.517,1.517,0,0,0-.55.64A2.052,2.052,0,0,0,0,16.33Z" fill="none" stroke="#fff" stroke-width="1.5"/>
      </g>
      <path id="Vector-2" data-name="Vector" d="M24,0H0V24H24Z" fill="none" opacity="0"/>
    </g>
  </g>
  <g id="Mask_Group_4" data-name="Mask Group 4" transform="translate(12.675 2.165)" clip-path="url(#clip-path)">
    <g id="vuesax_linear_card" data-name="vuesax/linear/card" transform="translate(-0.676 -0.165)">
      <g id="card">
        <path id="Vector-3" data-name="Vector" d="M20,0H0" transform="translate(2 8.505)" fill="none" stroke="#fff" stroke-linecap="round" stroke-linejoin="round" stroke-width="1.5"/>
        <path id="Vector-4" data-name="Vector" d="M8.972,0H0" transform="translate(10 16.505)" fill="none" stroke="#fff" stroke-linecap="round" stroke-linejoin="round" stroke-width="1.5"/>
        <path id="Vector-5" data-name="Vector" d="M9.472,0H0" transform="translate(9.5 13.317)" fill="none" stroke="#fff" stroke-linecap="round" stroke-linejoin="round" stroke-width="1.5"/>
        <path id="Vector-6" data-name="Vector" d="M15.56,0H4.45C.89,0,0,.88,0,4.39V12.6c0,3.51.89,4.39,4.44,4.39H15.56C19.11,17,20,16.12,20,12.61V4.39C20,.88,19.11,0,15.56,0Z" transform="translate(2 3.505)" fill="none" stroke="#fff" stroke-linecap="round" stroke-linejoin="round" stroke-width="1.5"/>
        <path id="Vector-7" data-name="Vector" d="M24,0H0V24H24Z" fill="none" opacity="0"/>
      </g>
    </g>
  </g>
</svg>
