<svg id="_8853" data-name="8853" xmlns="http://www.w3.org/2000/svg" width="29.056" height="29.056" viewBox="0 0 29.056 29.056">
  <g id="Group_110" data-name="Group 110" transform="translate(4.795 6.912)">
    <g id="Group_109" data-name="Group 109">
      <path id="Path_20" data-name="Path 20" d="M80.988,111.321a1.178,1.178,0,0,0-1.666,0,8.053,8.053,0,0,0-2.3,6.527,1.178,1.178,0,0,0,1.171,1.061c.039,0,.079,0,.118-.006a1.179,1.179,0,0,0,1.055-1.29,5.7,5.7,0,0,1,1.624-4.627A1.178,1.178,0,0,0,80.988,111.321Z" transform="translate(-76.978 -110.976)" fill="#b8b8b8"/>
    </g>
  </g>
  <g id="Group_112" data-name="Group 112">
    <g id="Group_111" data-name="Group 111">
      <path id="Path_21" data-name="Path 21" d="M13.471,0A13.471,13.471,0,1,0,26.943,13.471,13.487,13.487,0,0,0,13.471,0Zm0,24.586A11.115,11.115,0,1,1,24.586,13.471,11.127,11.127,0,0,1,13.471,24.586Z" fill="#b8b8b8"/>
    </g>
  </g>
  <g id="Group_114" data-name="Group 114" transform="translate(21.233 21.196)">
    <g id="Group_113" data-name="Group 113">
      <path id="Path_22" data-name="Path 22" d="M344.284,343.121l-6.134-6.163a.841.841,0,0,0-1.194,0,.851.851,0,0,0,0,1.2l6.134,6.163a.841.841,0,0,0,1.194,0A.851.851,0,0,0,344.284,343.121Z" transform="translate(-336.708 -336.71)" fill="#b8b8b8"/>
    </g>
  </g>
</svg>
