<svg xmlns="http://www.w3.org/2000/svg" width="37.291" height="9.882" viewBox="0 0 37.291 9.882">
  <g id="more" transform="translate(0.03 -188.168)">
    <path id="Path_45" data-name="Path 45" d="M21.662,189.22a4.941,4.941,0,1,0,.842,6.936,4.94,4.94,0,0,0-.842-6.936Zm-.611,5.8a3.094,3.094,0,1,1-.527-4.344A3.094,3.094,0,0,1,21.051,195.018Zm-13.093-5.8a4.941,4.941,0,1,0,.842,6.936,4.94,4.94,0,0,0-.842-6.936Zm-.611,5.8a3.1,3.1,0,1,1,.635-2.281,3.1,3.1,0,0,1-.635,2.281Zm28.021-5.8a4.941,4.941,0,1,0,.842,6.936,4.94,4.94,0,0,0-.842-6.936Zm-.611,5.8a3.094,3.094,0,1,1-.527-4.344,3.094,3.094,0,0,1,.527,4.344Z" transform="translate(0)" fill="#b8b8b8"/>
  </g>
</svg>
